<?xml version="1.0" standalone="no"?>
<!DOCTYPE svg PUBLIC "-//W3C//DTD SVG 20010904//EN"
 "http://www.w3.org/TR/2001/REC-SVG-20010904/DTD/svg10.dtd">
<svg version="1.0" xmlns="http://www.w3.org/2000/svg"
 width="1024.000000pt" height="1024.000000pt" viewBox="0 0 1024.000000 1024.000000"
 preserveAspectRatio="xMidYMid meet">

<g transform="translate(0.000000,1024.000000) scale(0.100000,-0.100000)"
fill="#000000" stroke="none">
<path d="M4900 8703 c-107 -8 -325 -46 -445 -77 -448 -116 -850 -353 -1171
-690 -148 -154 -195 -216 -201 -264 -14 -105 72 -202 178 -202 59 0 102 24
155 88 354 425 828 692 1389 779 152 24 477 24 635 0 537 -82 1008 -339 1357
-739 51 -59 101 -107 120 -114 77 -33 173 -4 217 64 58 89 44 147 -61 268
-241 280 -496 477 -818 635 -287 140 -559 217 -884 249 -95 9 -365 11 -471 3z"/>
<path d="M5045 7973 c-388 -17 -730 -138 -1046 -369 -99 -73 -337 -313 -362
-366 -39 -82 0 -190 85 -234 32 -17 121 -18 150 -3 12 6 82 73 157 148 238
240 473 371 792 443 90 20 131 23 299 23 270 0 417 -32 639 -136 177 -83 289
-165 447 -324 77 -78 150 -147 162 -154 29 -15 118 -14 150 3 86 45 124 144
89 229 -20 47 -204 245 -300 322 -330 265 -692 400 -1122 417 -44 2 -107 2
-140 1z"/>
<path d="M5030 7239 c-223 -17 -426 -95 -611 -234 -98 -73 -225 -204 -245
-252 -56 -133 65 -273 208 -241 35 7 61 26 138 102 137 135 231 194 385 242
48 15 92 19 215 19 135 0 165 -3 230 -23 143 -45 297 -144 386 -247 69 -81
101 -98 178 -93 75 4 123 34 151 94 24 51 23 125 -3 166 -30 49 -177 190 -257
249 -153 111 -389 203 -555 215 -41 3 -86 6 -100 8 -14 1 -68 -1 -120 -5z"/>
<path d="M5013 6466 c-101 -33 -178 -100 -230 -198 -25 -48 -28 -62 -28 -158
0 -96 2 -110 28 -158 37 -70 96 -133 152 -163 l45 -24 0 -392 0 -393 -255 0
c-236 0 -259 -2 -295 -20 -51 -26 -87 -75 -109 -147 -18 -57 -239 -684 -280
-794 -12 -30 -37 -70 -57 -90 l-35 -34 -640 -3 -639 -2 0 120 0 120 138 0 138
0 -73 286 c-78 311 -92 343 -165 391 l-41 28 -299 3 c-338 4 -358 0 -414 -74
l-29 -37 -3 -231 c-3 -224 -2 -232 20 -276 32 -63 76 -90 149 -90 l58 0 3
-120 3 -120 -140 0 c-126 0 -144 -2 -179 -23 -21 -12 -48 -38 -58 -57 -34 -62
-21 -114 112 -454 105 -268 135 -341 145 -354 1 -1 38 8 81 20 69 20 102 23
264 23 231 0 286 -13 520 -125 206 -98 262 -114 405 -114 142 0 219 21 425
120 212 101 262 115 438 121 229 9 327 -14 558 -130 189 -95 251 -112 399
-111 108 0 129 3 212 32 50 17 146 58 212 92 66 33 160 72 208 87 82 25 101
27 273 27 227 1 279 -11 501 -120 209 -102 265 -119 409 -118 143 1 225 24
422 118 164 79 275 112 426 130 87 10 118 17 131 32 39 41 717 861 744 901 41
58 47 125 15 173 -50 75 33 70 -1168 71 l-1075 1 -315 345 c-232 255 -327 353
-365 374 l-50 29 -222 0 -223 0 0 393 1 392 39 18 c55 25 123 94 157 158 25
49 28 63 28 159 0 99 -2 109 -33 172 -38 78 -101 139 -182 176 -67 31 -191 40
-257 18z m775 -2031 l182 -205 -716 0 c-635 0 -715 2 -710 15 3 8 29 101 57
205 l52 190 476 0 477 0 182 -205z"/>
<path d="M2225 2734 c-44 -8 -141 -39 -216 -70 -165 -66 -247 -84 -366 -81
-85 2 -91 1 -127 -27 -94 -71 -87 -200 13 -271 l43 -30 146 0 c163 1 201 9
354 76 128 56 198 72 313 73 124 0 182 -16 335 -94 261 -131 483 -178 719
-151 149 18 253 51 441 141 193 92 227 103 340 103 111 1 170 -17 355 -109
243 -120 436 -160 654 -136 155 17 261 51 453 143 139 68 181 83 257 96 140
24 218 6 430 -96 92 -44 204 -91 251 -105 221 -63 463 -58 682 14 35 12 126
52 203 90 177 87 235 104 350 103 106 0 179 -18 319 -77 131 -56 221 -76 343
-76 119 0 162 11 210 53 88 77 83 192 -10 261 -25 18 -41 21 -115 19 -121 -4
-186 10 -342 72 -169 68 -230 84 -351 92 -175 11 -316 -23 -509 -121 -203
-103 -326 -133 -508 -123 -138 8 -212 30 -402 122 -216 103 -278 120 -460 119
-182 0 -223 -10 -440 -114 -196 -94 -280 -119 -417 -127 -177 -10 -298 20
-508 125 -198 99 -329 130 -504 119 -131 -8 -243 -43 -409 -126 -189 -95 -268
-116 -447 -116 -177 0 -243 18 -450 120 -82 41 -184 84 -225 95 -100 29 -294
35 -405 14z"/>
<path d="M2241 2060 c-75 -16 -141 -40 -261 -96 -114 -53 -188 -76 -285 -89
-40 -6 -57 -15 -91 -48 -47 -48 -61 -95 -44 -156 45 -166 229 -174 550 -23
111 53 189 72 290 72 114 0 153 -11 340 -101 194 -92 301 -125 454 -139 236
-22 433 17 671 134 186 92 233 106 350 106 117 0 165 -14 350 -106 83 -41 189
-85 236 -98 123 -35 292 -50 418 -37 186 19 292 52 481 146 159 80 210 95 326
95 115 0 180 -19 336 -100 214 -110 343 -142 568 -142 226 0 385 39 574 141
138 74 226 101 331 101 108 0 179 -18 315 -79 136 -62 152 -68 230 -86 134
-31 222 -12 271 57 30 41 38 132 16 174 -31 59 -60 76 -176 100 -79 16 -142
37 -228 77 -202 95 -283 113 -462 104 -152 -7 -204 -22 -401 -117 -220 -106
-285 -124 -465 -123 -178 0 -250 19 -442 113 -229 114 -321 137 -516 127 -142
-7 -208 -27 -402 -123 -200 -99 -270 -117 -450 -118 -178 0 -241 16 -465 124
-197 94 -249 109 -398 117 -180 9 -308 -21 -487 -117 -327 -174 -600 -173
-939 5 -161 85 -244 107 -411 111 -77 2 -160 -1 -184 -6z"/>
</g>
</svg>
