<?xml version="1.0" standalone="no"?>
<!DOCTYPE svg PUBLIC "-//W3C//DTD SVG 20010904//EN"
 "http://www.w3.org/TR/2001/REC-SVG-20010904/DTD/svg10.dtd">
<svg version="1.0" xmlns="http://www.w3.org/2000/svg"
 width="1024.000000pt" height="1024.000000pt" viewBox="0 0 1024.000000 1024.000000"
 preserveAspectRatio="xMidYMid meet">

<g transform="translate(0.000000,1024.000000) scale(0.100000,-0.100000)"
fill="#000000" stroke="none">
<path d="M5003 9032 c-132 -47 -215 -146 -243 -289 -15 -74 -3 -160 32 -232
31 -63 107 -137 176 -169 49 -23 70 -27 152 -27 82 0 103 4 152 27 79 37 142
98 181 177 29 60 32 74 32 161 0 82 -4 103 -27 152 -35 76 -104 148 -175 183
-76 38 -201 45 -280 17z"/>
<path d="M5049 8017 c-47 -32 -60 -64 -66 -173 -5 -86 -8 -95 -27 -98 -12 -3
-50 -10 -85 -16 -143 -26 -315 -102 -450 -198 l-73 -53 -67 64 c-75 72 -118
92 -170 77 -75 -21 -124 -106 -101 -174 6 -19 40 -61 75 -96 36 -34 65 -64 65
-68 0 -3 -21 -37 -46 -74 -89 -133 -164 -328 -180 -467 l-7 -61 -101 0 c-83 0
-107 -4 -133 -20 -82 -50 -85 -183 -6 -236 22 -14 52 -19 134 -22 l106 -4 7
-75 c14 -150 81 -328 184 -483 l50 -75 -42 -48 c-82 -95 -96 -118 -96 -159 0
-82 57 -138 142 -138 50 0 68 11 158 96 l45 42 103 -68 c295 -196 667 -250
1002 -145 113 36 236 96 327 162 l75 54 66 -62 c76 -71 120 -93 169 -84 45 8
100 59 114 105 17 57 -1 97 -79 172 l-67 65 48 69 c101 142 175 327 198 489
l12 85 91 0 c67 0 100 5 125 18 99 50 105 177 12 239 -30 20 -47 23 -137 23
l-104 0 0 29 c0 42 -25 158 -51 232 -28 82 -80 186 -136 273 l-44 68 69 72
c45 46 72 83 76 104 19 85 -45 162 -135 162 -43 0 -65 -14 -139 -86 l-65 -63
-59 45 c-146 111 -290 175 -481 213 l-90 17 -5 105 c-3 57 -11 114 -18 127
-34 61 -132 80 -193 39z m-59 -780 l0 -223 -49 -18 c-27 -9 -57 -23 -66 -30
-16 -11 -35 5 -169 142 -83 84 -152 157 -154 161 -3 10 89 71 166 110 64 32
211 80 250 80 l22 1 0 -223z m371 204 c41 -10 100 -30 131 -44 71 -32 201
-115 196 -126 -2 -4 -71 -79 -154 -164 l-150 -157 -68 33 -68 32 6 140 c3 77
6 177 6 223 0 62 3 82 13 82 8 0 47 -9 88 -19z m587 -466 c39 -78 73 -181 86
-257 l7 -38 -153 0 c-84 0 -183 -3 -220 -6 l-66 -7 -20 44 -20 44 161 162
c127 128 164 160 173 150 7 -6 30 -48 52 -92z m-1472 -17 c65 -62 138 -129
162 -148 l43 -35 -22 -52 -21 -52 -217 6 c-119 3 -218 7 -220 9 -2 2 5 43 17
91 20 82 115 293 131 293 4 0 61 -51 127 -112z m739 -232 c89 -41 135 -115
135 -213 0 -171 -185 -281 -340 -203 -46 24 -74 55 -99 110 -24 52 -27 136 -8
183 35 83 130 147 217 147 26 0 66 -10 95 -24z m-585 -333 c0 -10 11 -45 25
-78 l24 -59 -151 -146 c-83 -80 -154 -146 -157 -148 -11 -4 -87 129 -115 199
-29 75 -56 180 -56 222 l0 27 215 0 c198 0 215 -1 215 -17z m1410 -7 c0 -40
-29 -156 -57 -226 -31 -79 -101 -202 -113 -198 -4 2 -76 70 -159 151 l-152
148 20 43 c10 24 22 58 26 75 l7 31 214 0 214 0 0 -24z m-457 -532 l89 -92
-44 -30 c-68 -47 -161 -90 -245 -114 -68 -20 -101 -23 -263 -23 -163 0 -194 3
-264 23 -84 24 -212 86 -258 124 l-27 23 149 152 149 151 63 -26 c116 -47 291
-41 398 13 l45 23 60 -66 c32 -37 99 -108 148 -158z"/>
<path d="M4415 4966 c-52 -23 -74 -59 -124 -203 -241 -696 -264 -756 -307
-800 -24 -24 -58 -46 -80 -52 -26 -7 -243 -11 -636 -11 l-598 0 0 120 0 120
135 0 c97 0 135 3 135 12 0 30 -154 529 -178 577 -50 99 -37 96 -395 99 -441
4 -420 20 -425 -333 -5 -333 4 -353 160 -358 l88 -2 0 -111 0 -112 -152 -4
c-160 -4 -191 -12 -231 -56 -41 -45 -37 -68 98 -471 70 -210 127 -381 128
-381 1 0 26 9 54 20 135 51 332 63 494 30 116 -24 154 -38 349 -130 175 -82
243 -100 379 -100 144 0 220 20 375 100 215 110 353 150 523 150 167 0 325
-45 540 -154 138 -71 235 -96 362 -96 143 0 215 20 391 105 180 86 244 109
372 131 223 39 428 -3 693 -140 147 -76 207 -91 370 -91 164 0 209 12 389 102
197 99 303 130 478 141 l106 7 202 250 c112 138 273 336 359 442 177 218 226
297 218 356 -3 21 -14 48 -24 59 -43 49 -11 48 -1140 48 l-1058 0 -350 349
c-290 290 -359 354 -405 375 l-55 26 -605 0 c-482 -1 -611 -3 -635 -14z m1365
-531 l205 -205 -743 0 c-408 0 -742 1 -742 3 0 5 117 351 129 380 l11 27 467
0 468 0 205 -205z"/>
<path d="M2214 2756 c-97 -19 -133 -31 -243 -83 -108 -51 -144 -59 -299 -71
-109 -9 -114 -10 -147 -42 -89 -86 -63 -221 53 -273 41 -17 60 -19 167 -14
139 7 220 27 348 87 207 97 405 92 604 -15 245 -133 482 -187 718 -164 158 15
270 49 450 139 293 146 394 147 670 10 227 -112 381 -152 590 -153 209 0 374
44 592 159 236 125 375 126 617 3 142 -73 221 -103 332 -130 298 -71 593 -28
862 125 111 63 190 88 297 93 112 6 188 -11 323 -71 54 -25 126 -52 158 -61
79 -21 276 -31 331 -16 128 35 172 179 84 274 l-38 40 -114 9 c-156 12 -198
22 -312 74 -173 79 -342 107 -510 85 -128 -17 -203 -43 -382 -132 -182 -90
-240 -108 -377 -116 -173 -10 -308 23 -494 122 -196 103 -356 144 -523 132
-140 -10 -230 -39 -416 -132 -193 -97 -249 -114 -391 -122 -174 -10 -275 16
-509 132 -231 114 -391 145 -582 111 -108 -19 -189 -50 -373 -144 -165 -83
-221 -97 -400 -97 -168 1 -254 22 -420 108 -138 71 -193 93 -285 118 -93 26
-287 33 -381 15z"/>
<path d="M2220 2085 c-93 -21 -172 -50 -280 -106 -55 -28 -120 -54 -155 -60
-104 -19 -133 -29 -166 -56 -59 -50 -75 -132 -39 -203 31 -60 73 -84 155 -88
96 -5 174 17 335 93 156 75 226 95 325 95 104 0 187 -24 315 -89 218 -111 379
-152 595 -153 218 -1 361 35 578 143 159 80 222 99 327 99 105 0 174 -20 325
-94 218 -107 383 -148 595 -149 210 0 343 34 565 145 176 89 190 93 325 93
135 0 169 -10 340 -96 174 -87 290 -121 480 -139 219 -21 428 22 655 134 196
97 208 101 345 101 134 0 147 -4 330 -91 154 -72 227 -94 318 -94 115 0 182
55 190 155 8 102 -53 167 -173 184 -87 13 -120 24 -266 95 -139 68 -253 95
-390 96 -173 0 -252 -21 -464 -126 -201 -99 -271 -117 -450 -117 -179 0 -247
17 -455 118 -203 97 -266 116 -411 122 -193 9 -279 -12 -504 -123 -194 -96
-271 -116 -440 -117 -167 -2 -246 19 -455 118 -230 109 -272 120 -460 120
-189 0 -213 -7 -440 -116 -91 -43 -200 -88 -244 -99 -229 -58 -437 -26 -697
107 -157 81 -249 106 -414 110 -87 2 -151 -2 -195 -12z"/>
</g>
</svg>
